<?xml version="1.0" standalone="no"?>
<!DOCTYPE svg PUBLIC "-//W3C//DTD SVG 20010904//EN"
 "http://www.w3.org/TR/2001/REC-SVG-20010904/DTD/svg10.dtd">
<svg version="1.0" xmlns="http://www.w3.org/2000/svg"
 width="512.000000pt" height="512.000000pt" viewBox="0 0 512.000000 512.000000"
 preserveAspectRatio="xMidYMid meet">
<metadata>
Created by potrace 1.11, written by Peter Selinger 2001-2013
</metadata>
<g transform="translate(0.000000,512.000000) scale(0.100000,-0.100000)"
fill="#000000" stroke="none">
<path d="M2379 5036 c-2 -2 -33 -6 -69 -9 -387 -34 -800 -184 -1144 -416 -281
-190 -561 -487 -737 -782 -162 -272 -283 -613 -325 -919 -4 -30 -9 -64 -11
-75 -2 -11 -5 -117 -7 -235 -6 -352 39 -616 159 -930 279 -729 913 -1301 1665
-1503 235 -63 420 -85 690 -82 113 2 214 5 225 8 11 2 47 8 80 12 63 7 68 8
155 26 611 123 1173 493 1532 1010 221 317 350 638 419 1039 40 239 32 626
-20 871 -6 30 -14 67 -16 81 -8 45 -76 262 -102 323 -106 259 -217 452 -374
651 -80 101 -280 302 -386 387 -144 115 -348 243 -493 309 -30 14 -77 35 -105
48 -79 36 -301 106 -405 128 -101 22 -125 27 -205 38 -27 3 -59 9 -70 11 -23
6 -451 14 -456 9z m-484 -1707 c63 -30 124 -90 155 -154 34 -72 34 -198 0
-270 -31 -64 -91 -124 -155 -155 -69 -33 -199 -34 -265 -2 -80 39 -154 121
-174 192 -48 177 36 345 204 403 65 22 172 16 235 -14z m1635 -34 c222 -58
404 -224 426 -387 8 -61 -8 -102 -53 -129 -49 -31 -101 -22 -159 28 -162 137
-229 166 -384 164 -148 -1 -234 -35 -349 -136 -41 -36 -85 -68 -98 -71 -40
-10 -88 5 -119 37 -41 43 -40 112 4 200 79 159 254 274 472 312 52 9 198 -1
260 -18z m-1912 -1399 c16 -12 60 -55 100 -97 171 -180 406 -303 657 -343 101
-16 323 -15 395 2 25 6 56 13 70 16 55 10 160 50 246 92 114 57 235 148 342
258 63 64 92 87 118 92 46 8 96 -2 128 -27 85 -67 94 -165 22 -246 -241 -270
-513 -427 -866 -499 -105 -22 -370 -26 -490 -7 -334 50 -641 213 -879 467 -68
72 -85 102 -85 155 0 58 24 100 78 135 51 33 122 34 164 2z"/>
</g>
</svg>
